<svg height="512" viewBox="0 0 512 512" width="512" xmlns="http://www.w3.org/2000/svg" xmlns:xlink="http://www.w3.org/1999/xlink"><linearGradient id="a" gradientUnits="userSpaceOnUse" x1=".516" x2="490.135" y1="511.484" y2="21.865" data-name="New Gradient Swatch 1"><stop offset="0" stop-color="#003f8a"/><stop offset=".518" stop-color="#00d7df"/><stop offset="1" stop-color="#006df0"/></linearGradient><linearGradient id="b" x1="-193.484" x2="296.135" xlink:href="#a" y1="317.484" y2="-172.135"/><linearGradient id="c" x1="-177.484" x2="312.135" xlink:href="#a" y1="333.484" y2="-156.135"/><linearGradient id="d" x1="-161.484" x2="328.135" xlink:href="#a" y1="349.484" y2="-140.135"/><linearGradient id="e" x1="-85.484" x2="404.135" xlink:href="#a" y1="425.484" y2="-64.135"/><linearGradient id="f" x1="-79.484" x2="410.135" xlink:href="#a" y1="431.484" y2="-58.135"/><linearGradient id="g" x1="8.516" x2="498.135" xlink:href="#a" y1="519.484" y2="29.865"/><linearGradient id="h" x1="4.516" x2="494.135" xlink:href="#a" y1="515.484" y2="25.865"/><linearGradient id="i" x1="42.516" x2="532.135" xlink:href="#a" y1="553.484" y2="63.865"/><linearGradient id="j" x1="40.516" x2="530.135" xlink:href="#a" y1="551.484" y2="61.865"/><linearGradient id="k" x1="36.516" x2="526.135" xlink:href="#a" y1="547.484" y2="57.865"/><linearGradient id="l" x1="74.516" x2="564.135" xlink:href="#a" y1="585.484" y2="95.865"/><linearGradient id="m" x1="98.516" x2="588.135" xlink:href="#a" y1="609.484" y2="119.865"/><linearGradient id="n" x1="104.516" x2="594.135" xlink:href="#a" y1="615.484" y2="125.865"/><linearGradient id="o" x1="-31.484" x2="458.135" xlink:href="#a" y1="479.484" y2="-10.135"/><linearGradient id="p" x1="-35.484" x2="454.135" xlink:href="#a" y1="475.484" y2="-14.135"/><linearGradient id="q" x1="2.516" x2="492.135" xlink:href="#a" y1="513.484" y2="23.865"/><linearGradient id="r" x1=".516" x2="490.135" xlink:href="#a" y1="511.484" y2="21.865"/><linearGradient id="s" x1="-3.484" x2="486.135" xlink:href="#a" y1="507.484" y2="17.865"/><linearGradient id="t" x1="34.516" x2="524.135" xlink:href="#a" y1="545.484" y2="55.865"/><g><path d="m476 48h-440a28.032 28.032 0 0 0 -28 28v360a28.032 28.032 0 0 0 28 28h440a28.032 28.032 0 0 0 28-28v-360a28.032 28.032 0 0 0 -28-28zm-440 16h440a12.013 12.013 0 0 1 12 12v20h-464v-20a12.013 12.013 0 0 1 12-12zm440 384h-440a12.013 12.013 0 0 1 -12-12v-324h464v324a12.013 12.013 0 0 1 -12 12z" fill="url(#a)"/><path d="m40 88h8a8 8 0 0 0 0-16h-8a8 8 0 0 0 0 16z" fill="url(#b)"/><path d="m72 88h8a8 8 0 0 0 0-16h-8a8 8 0 0 0 0 16z" fill="url(#c)"/><path d="m104 88h8a8 8 0 0 0 0-16h-8a8 8 0 0 0 0 16z" fill="url(#d)"/><path d="m187.969 193.054-56-32a8 8 0 0 0 -11.969 6.946v64a8 8 0 0 0 11.969 6.946l56-32a8 8 0 0 0 0-13.892zm-51.969 25.161v-36.43l31.875 18.215z" fill="url(#e)"/><path d="m264 244v-88a28.032 28.032 0 0 0 -28-28h-168a28.032 28.032 0 0 0 -28 28v88a28.032 28.032 0 0 0 28 28h168a28.032 28.032 0 0 0 28-28zm-16 0a12.013 12.013 0 0 1 -12 12h-168a12.013 12.013 0 0 1 -12-12v-88a12.013 12.013 0 0 1 12-12h168a12.013 12.013 0 0 1 12 12z" fill="url(#f)"/><path d="m464 144h-176a8 8 0 0 0 0 16h176a8 8 0 0 0 0-16z" fill="url(#g)"/><path d="m288 192h96a8 8 0 0 0 0-16h-96a8 8 0 0 0 0 16z" fill="url(#h)"/><path d="m416 192a8 8 0 0 0 0-16h-8a8 8 0 0 0 0 16z" fill="url(#i)"/><path d="m464 208h-176a8 8 0 0 0 0 16h176a8 8 0 0 0 0-16z" fill="url(#j)"/><path d="m384 256a8 8 0 0 0 0-16h-96a8 8 0 0 0 0 16z" fill="url(#k)"/><path d="m416 256a8 8 0 0 0 0-16h-8a8 8 0 0 0 0 16z" fill="url(#l)"/><path d="m395.969 353.054-56-32a8 8 0 0 0 -11.969 6.946v64a8 8 0 0 0 11.969 6.946l56-32a8 8 0 0 0 0-13.892zm-51.969 25.161v-36.43l31.875 18.215z" fill="url(#m)"/><path d="m444 288h-168a28.032 28.032 0 0 0 -28 28v88a28.032 28.032 0 0 0 28 28h168a28.032 28.032 0 0 0 28-28v-88a28.032 28.032 0 0 0 -28-28zm12 116a12.013 12.013 0 0 1 -12 12h-168a12.013 12.013 0 0 1 -12-12v-88a12.013 12.013 0 0 1 12-12h168a12.013 12.013 0 0 1 12 12z" fill="url(#n)"/><path d="m224 304h-176a8 8 0 0 0 0 16h176a8 8 0 0 0 0-16z" fill="url(#o)"/><path d="m48 352h96a8 8 0 0 0 0-16h-96a8 8 0 0 0 0 16z" fill="url(#p)"/><path d="m176 352a8 8 0 0 0 0-16h-8a8 8 0 0 0 0 16z" fill="url(#q)"/><path d="m224 368h-176a8 8 0 0 0 0 16h176a8 8 0 0 0 0-16z" fill="url(#r)"/><path d="m144 400h-96a8 8 0 0 0 0 16h96a8 8 0 0 0 0-16z" fill="url(#s)"/><path d="m176 400h-8a8 8 0 0 0 0 16h8a8 8 0 0 0 0-16z" fill="url(#t)"/></g></svg>