<?xml version="1.0" encoding="iso-8859-1"?>
<!-- Generator: Adobe Illustrator 19.0.0, SVG Export Plug-In . SVG Version: 6.00 Build 0)  -->
<svg version="1.1" id="Capa_1" xmlns="http://www.w3.org/2000/svg" xmlns:xlink="http://www.w3.org/1999/xlink" x="0px" y="0px"
	 viewBox="0 0 512 512" style="enable-background:new 0 0 512 512;" xml:space="preserve">
<path d="M338.228,512H133.06c-21.8,0-39.632-17.832-39.632-39.632V39.632C93.428,17.832,111.26,0,133.06,0h205.176
	c21.8,0,39.632,17.832,39.632,39.632v432.736C377.86,494.168,360.028,512,338.228,512z"/>
<rect x="112.188" y="40.4" style="fill:#FFFFFF;" width="246.912" height="403.76"/>
<g>
	<path style="fill:#CCCCCC;" d="M272.676,24.424h-50.528c-2.272,0-4.128-1.856-4.128-4.128l0,0c0-2.272,1.856-4.128,4.128-4.128
		h50.528c2.272,0,4.128,1.856,4.128,4.128l0,0C276.804,22.568,274.948,24.424,272.676,24.424z"/>
	<circle style="fill:#CCCCCC;" cx="198.612" cy="20.296" r="4.128"/>
	<path style="fill:#CCCCCC;" d="M235.644,497.568c-10.768,0-19.52-8.76-19.52-19.52s8.76-19.52,19.52-19.52s19.52,8.76,19.52,19.52
		S246.412,497.568,235.644,497.568z M235.644,462.52c-8.56,0-15.52,6.96-15.52,15.52s6.96,15.52,15.52,15.52s15.52-6.96,15.52-15.52
		S244.204,462.52,235.644,462.52z"/>
</g>
<path style="fill:#FFFFFF;" d="M198.428,279.696H172.3c-11.776,0-21.352-9.576-21.352-21.344v-74.664
	c0-11.768,9.576-21.344,21.352-21.344h103.144c11.776,0,21.352,9.576,21.352,21.344v74.664c0,11.768-9.576,21.344-21.352,21.344
	h-41.528l-35.488,28.88V279.696z"/>
<path style="fill:#E04F5F;" d="M275.444,166.344c9.568,0,17.352,7.784,17.352,17.352v74.656c0,9.568-7.784,17.352-17.352,17.352
	h-40.112h-2.848l-2.208,1.792l-27.856,22.672v-16.472v-8h-8h-22.128c-9.568,0-17.352-7.784-17.352-17.352v-74.656
	c0-9.568,7.784-17.352,17.352-17.352h103.152 M275.444,158.344H172.3c-13.944,0-25.352,11.408-25.352,25.352v74.656
	c0,13.944,11.408,25.352,25.352,25.352h22.128V317l40.904-33.296h40.112c13.944,0,25.352-11.408,25.352-25.352v-74.656
	C300.796,169.752,289.388,158.344,275.444,158.344L275.444,158.344z"/>
<path style="fill:#FF0000;" d="M397.196,68.2H241.652c-11.76,0-21.384,9.624-21.384,21.384v111.072
	c0,11.76,9.624,21.384,21.384,21.384h71.16l64.968,52.88v-52.88h19.408c11.76,0,21.384-9.624,21.384-21.384V89.584
	C418.58,77.824,408.956,68.2,397.196,68.2z"/>
<g>
	<rect x="251.332" y="111.784" style="fill:#FFFFFF;" width="136.16" height="4"/>
	<rect x="251.332" y="145.2" style="fill:#FFFFFF;" width="136.16" height="4"/>
	<rect x="251.332" y="178.56" style="fill:#FFFFFF;" width="136.16" height="4"/>
</g>
<g>
	<rect x="145.596" y="346.64" style="fill:#999999;" width="180.096" height="4"/>
	<rect x="145.596" y="371.84" style="fill:#999999;" width="180.096" height="4"/>
	<rect x="145.596" y="397.016" style="fill:#999999;" width="180.096" height="4"/>
</g>
<g>
</g>
<g>
</g>
<g>
</g>
<g>
</g>
<g>
</g>
<g>
</g>
<g>
</g>
<g>
</g>
<g>
</g>
<g>
</g>
<g>
</g>
<g>
</g>
<g>
</g>
<g>
</g>
<g>
</g>
</svg>
