<svg height="512" viewBox="0 0 64 64" width="512" xmlns="http://www.w3.org/2000/svg" xmlns:xlink="http://www.w3.org/1999/xlink"><linearGradient id="New_Gradient_Swatch_3" gradientUnits="userSpaceOnUse" x1="19" x2="19" y1="64.23" y2="-.832"><stop offset="0" stop-color="#006df0"/><stop offset="1" stop-color="#00e7f0"/></linearGradient><linearGradient id="New_Gradient_Swatch_3-3" x1="53" x2="53" xlink:href="#New_Gradient_Swatch_3" y1="64.23" y2="-.832"/><linearGradient id="New_Gradient_Swatch_3-6" x1="32" x2="32" xlink:href="#New_Gradient_Swatch_3" y1="64.23" y2="-.832"/><linearGradient id="New_Gradient_Swatch_3-8" x1="23" x2="23" xlink:href="#New_Gradient_Swatch_3" y1="64.23" y2="-.832"/><linearGradient id="New_Gradient_Swatch_3-9" x1="27" x2="27" xlink:href="#New_Gradient_Swatch_3" y1="64.23" y2="-.832"/><linearGradient id="New_Gradient_Swatch_3-11" x1="22.5" x2="22.5" xlink:href="#New_Gradient_Swatch_3" y1="64.23" y2="-.832"/><linearGradient id="New_Gradient_Swatch_3-12" x1="37.5" x2="37.5" xlink:href="#New_Gradient_Swatch_3" y1="64.23" y2="-.832"/><linearGradient id="New_Gradient_Swatch_3-13" x1="14" x2="14" xlink:href="#New_Gradient_Swatch_3" y1="64.23" y2="-.832"/><linearGradient id="New_Gradient_Swatch_3-16" x1="57" x2="57" xlink:href="#New_Gradient_Swatch_3" y1="64.23" y2="-.832"/><linearGradient id="New_Gradient_Swatch_3-21" x1="37" x2="37" xlink:href="#New_Gradient_Swatch_3" y1="64.23" y2="-.832"/><linearGradient id="New_Gradient_Swatch_3-22" x1="41" x2="41" xlink:href="#New_Gradient_Swatch_3" y1="64.23" y2="-.832"/><linearGradient id="New_Gradient_Swatch_3-23" x1="7" x2="7" xlink:href="#New_Gradient_Swatch_3" y1="64.23" y2="-.832"/><linearGradient id="New_Gradient_Swatch_3-27" x1="11" x2="11" xlink:href="#New_Gradient_Swatch_3" y1="64.23" y2="-.832"/><g id="Reposive_design" data-name="Reposive design"><path d="m35 56h-1.184a2.966 2.966 0 0 0 .184-1v-18a3 3 0 0 0 -3-3h-24a3 3 0 0 0 -3 3v18a2.966 2.966 0 0 0 .184 1h-1.184a1 1 0 0 0 -1 1v2a3 3 0 0 0 3 3h28a3 3 0 0 0 3-3v-2a1 1 0 0 0 -1-1zm-29-1v-18a1 1 0 0 1 1-1h24a1 1 0 0 1 1 1v18a1 1 0 0 1 -1 1h-24a1 1 0 0 1 -1-1zm28 4a1 1 0 0 1 -1 1h-28a1 1 0 0 1 -1-1v-1h30z" fill="url(#New_Gradient_Swatch_3)"/><path d="m31 38a1 1 0 0 0 -1-1h-22a1 1 0 0 0 -1 1v16a1 1 0 0 0 1 1h22a1 1 0 0 0 1-1zm-2 15h-20v-14h20z" fill="url(#New_Gradient_Swatch_3)"/><path d="m59 34h-12a3 3 0 0 0 -3 3v22a3 3 0 0 0 3 3h12a3 3 0 0 0 3-3v-22a3 3 0 0 0 -3-3zm-13 8h14v12h-14zm1-6h12a1 1 0 0 1 1 1v3h-14v-3a1 1 0 0 1 1-1zm12 24h-12a1 1 0 0 1 -1-1v-3h14v3a1 1 0 0 1 -1 1z" fill="url(#New_Gradient_Swatch_3-3)"/><path d="m54 57h-2a1 1 0 0 0 0 2h2a1 1 0 0 0 0-2z" fill="url(#New_Gradient_Swatch_3-3)"/><path d="m52 39h2a1 1 0 0 0 0-2h-2a1 1 0 0 0 0 2z" fill="url(#New_Gradient_Swatch_3-3)"/><path d="m17 32h30a3 3 0 0 0 3-3v-24a3 3 0 0 0 -3-3h-30a3 3 0 0 0 -3 3v24a3 3 0 0 0 3 3zm31-3a1 1 0 0 1 -1 1h-30a1 1 0 0 1 -1-1v-19h32zm-32-24a1 1 0 0 1 1-1h30a1 1 0 0 1 1 1v3h-32z" fill="url(#New_Gradient_Swatch_3-6)"/><path d="m18 5h2v2h-2z" fill="url(#New_Gradient_Swatch_3)"/><path d="m22 5h2v2h-2z" fill="url(#New_Gradient_Swatch_3-8)"/><path d="m26 5h2v2h-2z" fill="url(#New_Gradient_Swatch_3-9)"/><path d="m19 17h26a1 1 0 0 0 1-1v-4a1 1 0 0 0 -1-1h-26a1 1 0 0 0 -1 1v4a1 1 0 0 0 1 1zm1-4h24v2h-24z" fill="url(#New_Gradient_Swatch_3-6)"/><path d="m19 29h7a1 1 0 0 0 1-1v-9a1 1 0 0 0 -1-1h-7a1 1 0 0 0 -1 1v9a1 1 0 0 0 1 1zm1-9h5v7h-5z" fill="url(#New_Gradient_Swatch_3-11)"/><path d="m45 18h-15a1 1 0 0 0 -1 1v9a1 1 0 0 0 1 1h15a1 1 0 0 0 1-1v-9a1 1 0 0 0 -1-1zm-1 9h-13v-7h13z" fill="url(#New_Gradient_Swatch_3-12)"/><path d="m12 52h4a1 1 0 0 0 1-1v-10a1 1 0 0 0 -1-1h-4a1 1 0 0 0 -1 1v10a1 1 0 0 0 1 1zm1-10h2v8h-2z" fill="url(#New_Gradient_Swatch_3-13)"/><path d="m20 52h6a1 1 0 0 0 1-1v-10a1 1 0 0 0 -1-1h-6a1 1 0 0 0 -1 1v10a1 1 0 0 0 1 1zm5-2h-4v-3h4zm-4-8h4v3h-4z" fill="url(#New_Gradient_Swatch_3-8)"/><path d="m57 43h-8a1 1 0 0 0 -1 1v8a1 1 0 0 0 1 1h8a1 1 0 0 0 1-1v-8a1 1 0 0 0 -1-1zm-7 2h6v2h-6zm6 6h-6v-2h6z" fill="url(#New_Gradient_Swatch_3-3)"/><g fill="url(#New_Gradient_Swatch_3-16)"><path d="m56 18h2v2h-2z"/><path d="m56 22h2v2h-2z"/><path d="m56 26h2v2h-2z"/><path d="m56 30h2v2h-2z"/></g><path d="m52 18h2v2h-2z" fill="url(#New_Gradient_Swatch_3-3)"/><path d="m36 45h2v2h-2z" fill="url(#New_Gradient_Swatch_3-21)"/><path d="m40 45h2v2h-2z" fill="url(#New_Gradient_Swatch_3-22)"/><path d="m6 18h2v2h-2z" fill="url(#New_Gradient_Swatch_3-23)"/><path d="m6 22h2v2h-2z" fill="url(#New_Gradient_Swatch_3-23)"/><path d="m6 26h2v2h-2z" fill="url(#New_Gradient_Swatch_3-23)"/><path d="m6 30h2v2h-2z" fill="url(#New_Gradient_Swatch_3-23)"/><path d="m10 18h2v2h-2z" fill="url(#New_Gradient_Swatch_3-27)"/></g></svg>