<svg id="Capa_1" enable-background="new 0 0 512 512" height="512" viewBox="0 0 512 512" width="512" xmlns="http://www.w3.org/2000/svg"><g><g><path clip-rule="evenodd" d="m218.038 51.3h75.925c7.505 0 13.65-6.179 13.65-13.691v-27.609h-103.226v27.609c0 7.54 6.146 13.691 13.651 13.691z" fill="#c193da" fill-rule="evenodd"/></g><g><path clip-rule="evenodd" d="m136.449 119.642h239.018l.085-87.447c0-12.189-9.997-22.195-22.203-22.195h-45.736v27.609c0 7.512-6.145 13.691-13.65 13.691h-75.925c-7.505 0-13.65-6.151-13.65-13.691v-27.609h-45.736c-12.206 0-22.203 9.978-22.203 22.195z" fill="#cbf4fb" fill-rule="evenodd"/></g><g><path clip-rule="evenodd" d="m158.651 432.042h119.027l-34.267-44.021h-106.962v21.826c0 12.218 9.997 22.195 22.202 22.195z" fill="#c193da" fill-rule="evenodd"/></g><g><path clip-rule="evenodd" d="m212.034 308.936c12.489-3.997 26.592-.255 35.343 10.658l4.984 6.208 16.454 20.494c9.94 12.387 24.1 6.066 24.1-10.686v-4.11-10.97-133.028c0-29.111 41.205-29.111 41.205 0v71.658c0-29.111 41.233-29.111 41.233 0l.113-139.519h-239.017v268.379h106.963l-40.752-52.412c-9.204-11.819-3.625-22.505 9.374-26.672z" fill="#cbf4fb" fill-rule="evenodd"/></g><g><path clip-rule="evenodd" d="m431.992 502c5.607 0 10.223-4.62 10.223-10.233v-19.956-11.678c0-26.503 12.092-24.009 15.604-56.408v-62.389-6.605-40.45c0-29.111-41.233-29.111-41.233 0v-17.574c0-29.083-41.233-29.111-41.233 0v-17.546c0-29.111-41.233-29.111-41.233 0v-71.658c0-29.111-41.205-29.111-41.205 0v148.107c0 16.752-14.16 23.074-24.1 10.686l-16.454-20.494-4.984-6.208c-8.751-10.913-22.854-14.655-35.343-10.658-12.999 4.167-18.578 14.853-9.374 26.673l40.752 52.412 34.267 44.021 6.004 7.738c15.293 19.644 15.944 33.647 15.944 51.986 0 5.612 4.616 10.233 10.223 10.233h122.142z" fill="#ffd0c7" fill-rule="evenodd"/></g><g><path d="m437.778 156.363c1.953 1.952 4.512 2.929 7.071 2.929s5.119-.977 7.071-2.929l29.651-29.65c3.904-3.904 3.906-10.233.003-14.14l-29.651-29.677c-3.904-3.908-10.236-3.91-14.142-.007-3.907 3.903-3.91 10.235-.006 14.142l12.598 12.61h-64.89l.068-77.446c0-17.753-14.446-32.195-32.202-32.195h-194.698c-17.757 0-32.203 14.442-32.203 32.195v77.446h-64.821l12.598-12.61c3.903-3.906 3.901-10.238-.006-14.142s-10.239-3.901-14.142.007l-29.651 29.677c-3.902 3.906-3.901 10.235.003 14.14l29.651 29.65c1.953 1.952 4.512 2.929 7.071 2.929s5.119-.977 7.071-2.929c3.905-3.905 3.905-10.237 0-14.143l-12.579-12.579h64.806v280.206c0 17.752 14.446 32.194 32.203 32.194h114.122l3.018 3.881c13.192 16.946 13.835 27.916 13.835 45.845 0 11.156 9.072 20.232 20.223 20.232h16.256c5.523 0 10-4.478 10-10s-4.477-10-10-10h-16.256c-.079 0-.223-.137-.223-.232 0-20.458-1.295-36.603-18.05-58.127l-81.027-104.174c-1.918-2.464-2.764-4.699-2.321-6.133.423-1.37 2.473-3.469 6.852-4.873 8.978-2.873 18.591.028 24.498 7.395l21.438 26.702c.001.001.002.002.003.004 5.319 6.624 12.32 10.229 19.327 10.229 2.276 0 4.553-.381 6.772-1.161 9.743-3.426 15.795-13.396 15.795-26.019v-148.108c0-11.263 8.832-11.834 10.603-11.834s10.603.571 10.603 11.834v133.68c0 5.522 4.477 10 10 10s10-4.478 10-10v-62.022c0-11.263 8.844-11.833 10.617-11.833 2.802 0 5.47.998 7.32 2.739 2.188 2.06 3.297 5.119 3.297 9.094v72.367c0 5.522 4.477 10 10 10s10-4.478 10-10v-54.82c0-11.253 8.837-11.823 10.609-11.823 2.804 0 5.475.999 7.327 2.741 2.188 2.058 3.297 5.113 3.297 9.082v65.167c0 5.522 4.477 10 10 10s10-4.478 10-10v-47.593c0-11.263 8.844-11.834 10.617-11.834 2.802 0 5.47.999 7.32 2.74 2.188 2.06 3.297 5.119 3.297 9.094v108.892c-1.563 13.842-4.794 20.131-7.92 26.215-3.778 7.353-7.684 14.955-7.684 30.745v31.635c0 .096-.145.232-.224.232h-16.17c-5.523 0-10 4.478-10 10s4.477 10 10 10h16.17c11.151 0 20.224-9.076 20.224-20.232v-31.635c0-10.952 2.177-15.19 5.474-21.605 3.623-7.052 8.132-15.828 10.072-33.726.039-.357.058-.717.058-1.077v-109.444c0-20.899-15.402-31.834-30.617-31.834-4.259 0-8.532.858-12.478 2.55-4.536-13.243-16.704-20.114-28.763-20.114-3.592 0-7.191.617-10.599 1.823l.102-117.066h64.891l-12.579 12.579c-3.905 3.907-3.905 10.239 0 14.144zm-223.39-136.363h83.225v17.609c0 2-1.671 3.69-3.65 3.69h-75.925c-1.979 0-3.65-1.69-3.65-3.69zm42.829 402.042h-98.566c-6.729 0-12.203-5.471-12.203-12.194v-11.826h92.086zm108.162-192.876c-3.421-1.216-7.036-1.839-10.643-1.839-3.598 0-7.204.619-10.617 1.829v-41.655c0-20.898-15.395-31.834-30.603-31.834s-30.603 10.936-30.603 31.834v148.107c0 4.711-4.389 6.811-6.302 4.426l-21.434-26.697c-11.128-13.878-29.261-19.346-46.197-13.925-10.233 3.28-17.287 9.68-19.862 18.02-2.433 7.879-.426 16.517 5.647 24.316l28.212 36.272h-76.53v-248.38h219.017zm.105-119.524h-219.035v-77.447c0-6.725 5.474-12.195 12.203-12.195h35.736v17.609c0 13.062 10.609 23.69 23.65 23.69h75.925c13.041 0 23.65-10.628 23.65-23.69v-17.609h35.736c6.729 0 12.203 5.471 12.203 12.187z"/><path d="m370.963 492h-.057c-5.523 0-9.972 4.478-9.972 10s4.505 10 10.028 10 10-4.478 10-10-4.476-10-9.999-10z"/></g></g></svg>